<?xml version="1.0" encoding="utf-8"?>
<svg width="100px" height="100px" viewBox="0 0 100 100" version="1.1" xmlns:xlink="http://www.w3.org/1999/xlink" xmlns="http://www.w3.org/2000/svg">
  <defs>
    <rect width="100" height="100" id="artboard_1" />
    <clipPath id="clip_1">
      <use xlink:href="#artboard_1" clip-rule="evenodd" />
    </clipPath>
  </defs>
  <g id="Custom-Preset" clip-path="url(#clip_1)">
    <use xlink:href="#artboard_1" stroke="none" fill="#FFFFFF" />
    <path d="M7.999 0L92.001 0Q92.1974 0 92.3935 0.00963514Q92.5896 0.0192703 92.785 0.0385174Q92.9805 0.0577644 93.1747 0.0865771Q93.3689 0.11539 93.5615 0.153699Q93.7541 0.192007 93.9446 0.23972Q94.1351 0.287433 94.323 0.344434Q94.5109 0.401436 94.6958 0.467589Q94.8807 0.533742 95.0621 0.608888Q95.2435 0.684033 95.421 0.76799Q95.5985 0.851946 95.7717 0.944512Q95.9449 1.03708 96.1133 1.13803Q96.2817 1.23898 96.445 1.34807Q96.6083 1.45717 96.766 1.57414Q96.9237 1.69112 97.0755 1.81569Q97.2273 1.94026 97.3728 2.07213Q97.5183 2.204 97.6571 2.34285Q97.796 2.4817 97.9279 2.6272Q98.0597 2.7727 98.1843 2.92449Q98.3089 3.07628 98.4258 3.234Q98.5428 3.39172 98.6519 3.55499Q98.761 3.71826 98.862 3.88669Q98.9629 4.05512 99.0555 4.2283Q99.148 4.40148 99.232 4.57899Q99.316 4.7565 99.3911 4.93791Q99.4662 5.11933 99.5324 5.30422Q99.5986 5.4891 99.6556 5.67701Q99.7126 5.86492 99.7603 6.0554Q99.808 6.24588 99.8463 6.43847Q99.8846 6.63106 99.9134 6.8253Q99.9422 7.01954 99.9615 7.21496Q99.9807 7.41038 99.9904 7.60651Q100 7.80264 100 7.999L100 92.001Q100 92.1974 99.9904 92.3935Q99.9807 92.5896 99.9615 92.785Q99.9422 92.9805 99.9134 93.1747Q99.8846 93.3689 99.8463 93.5615Q99.808 93.7541 99.7603 93.9446Q99.7126 94.1351 99.6556 94.323Q99.5985 94.5109 99.5324 94.6958Q99.4662 94.8807 99.3911 95.0621Q99.3159 95.2435 99.232 95.421Q99.148 95.5985 99.0555 95.7717Q98.9629 95.9449 98.862 96.1133Q98.761 96.2817 98.6519 96.445Q98.5428 96.6083 98.4258 96.766Q98.3089 96.9237 98.1843 97.0755Q98.0597 97.2273 97.9279 97.3728Q97.796 97.5183 97.6571 97.6571Q97.5183 97.796 97.3728 97.9279Q97.2273 98.0597 97.0755 98.1843Q96.9237 98.3089 96.766 98.4258Q96.6083 98.5428 96.445 98.6519Q96.2817 98.761 96.1133 98.862Q95.9449 98.9629 95.7717 99.0555Q95.5985 99.148 95.421 99.232Q95.2435 99.316 95.0621 99.3911Q94.8807 99.4662 94.6958 99.5324Q94.5109 99.5986 94.323 99.6556Q94.1351 99.7126 93.9446 99.7603Q93.7541 99.808 93.5615 99.8463Q93.3689 99.8846 93.1747 99.9134Q92.9805 99.9422 92.785 99.9615Q92.5896 99.9807 92.3935 99.9904Q92.1974 100 92.001 100L7.999 100Q7.80264 100 7.60651 99.9904Q7.41038 99.9807 7.21496 99.9615Q7.01954 99.9422 6.8253 99.9134Q6.63106 99.8846 6.43847 99.8463Q6.24588 99.808 6.0554 99.7603Q5.86492 99.7126 5.67701 99.6556Q5.4891 99.5985 5.30422 99.5324Q5.11933 99.4662 4.93791 99.3911Q4.7565 99.3159 4.57899 99.232Q4.40148 99.148 4.2283 99.0555Q4.05512 98.9629 3.88669 98.862Q3.71826 98.761 3.55499 98.6519Q3.39172 98.5428 3.234 98.4258Q3.07628 98.3089 2.92449 98.1843Q2.7727 98.0597 2.6272 97.9279Q2.4817 97.796 2.34285 97.6571Q2.204 97.5183 2.07213 97.3728Q1.94026 97.2273 1.81569 97.0755Q1.69112 96.9237 1.57414 96.766Q1.45717 96.6083 1.34807 96.445Q1.23898 96.2817 1.13803 96.1133Q1.03708 95.9449 0.944512 95.7717Q0.851946 95.5985 0.76799 95.421Q0.684033 95.2435 0.608888 95.0621Q0.533742 94.8807 0.467589 94.6958Q0.401436 94.5109 0.344434 94.323Q0.287433 94.1351 0.23972 93.9446Q0.192007 93.7541 0.153699 93.5615Q0.11539 93.3689 0.0865771 93.1747Q0.0577644 92.9805 0.0385174 92.785Q0.0192703 92.5896 0.00963514 92.3935Q0 92.1974 0 92.001L0 7.999Q0 7.80264 0.00963514 7.60651Q0.0192703 7.41038 0.0385174 7.21496Q0.0577644 7.01954 0.0865771 6.8253Q0.11539 6.63106 0.153699 6.43847Q0.192007 6.24588 0.23972 6.0554Q0.287433 5.86492 0.344434 5.67701Q0.401436 5.4891 0.467589 5.30422Q0.533742 5.11933 0.608888 4.93791Q0.684033 4.7565 0.76799 4.57899Q0.851946 4.40148 0.944512 4.2283Q1.03708 4.05512 1.13803 3.88669Q1.23898 3.71826 1.34807 3.55499Q1.45717 3.39172 1.57414 3.234Q1.69112 3.07628 1.81569 2.92449Q1.94026 2.7727 2.07213 2.6272Q2.204 2.4817 2.34285 2.34285Q2.4817 2.204 2.6272 2.07213Q2.7727 1.94026 2.92449 1.81569Q3.07628 1.69112 3.234 1.57414Q3.39172 1.45717 3.55499 1.34807Q3.71826 1.23898 3.88669 1.13803Q4.05512 1.03708 4.2283 0.944512Q4.40148 0.851946 4.57899 0.76799Q4.7565 0.684033 4.93791 0.608888Q5.11933 0.533742 5.30422 0.467589Q5.4891 0.401436 5.67701 0.344434Q5.86492 0.287433 6.0554 0.23972Q6.24588 0.192007 6.43847 0.153699Q6.63106 0.11539 6.8253 0.0865771Q7.01954 0.0577644 7.21496 0.0385174Q7.41038 0.0192703 7.60651 0.00963514Q7.80264 0 7.999 0Z" id="Rectangle" fill="#34B8FF" fill-rule="evenodd" stroke="none" />
    <g id="SV" fill="#FFFFFF">
      <path d="M39.47 37.13Q39.905 36.86 40.235 36.2L42.215 32.39Q39.935 30.23 36.695 29.03Q33.455 27.83 29.615 27.83Q26.225 27.83 23.585 28.88Q20.945 29.93 19.13 31.67Q17.315 33.41 16.37 35.66Q15.425 37.91 15.425 40.28Q15.425 43.25 16.28 45.275Q17.135 47.3 18.545 48.65Q19.955 50 21.755 50.84Q23.555 51.68 25.415 52.28Q27.275 52.88 29.075 53.39Q30.875 53.9 32.285 54.635Q33.695 55.37 34.55 56.45Q35.405 57.53 35.405 59.24Q35.405 62.3 33.515 63.935Q31.625 65.57 28.175 65.57Q25.925 65.57 24.32 64.955Q22.715 64.34 21.53 63.59Q20.345 62.84 19.475 62.225Q18.605 61.61 17.855 61.61Q17.285 61.61 16.82 61.895Q16.355 62.18 16.025 62.6L13.685 66.47Q14.945 67.76 16.55 68.81Q18.155 69.86 20 70.61Q21.845 71.36 23.855 71.765Q25.865 72.17 27.935 72.17Q31.535 72.17 34.325 71.075Q37.115 69.98 39.05 68.075Q40.985 66.17 41.99 63.605Q42.995 61.04 42.995 58.1Q42.995 55.4 42.14 53.51Q41.285 51.62 39.875 50.315Q38.465 49.01 36.665 48.155Q34.865 47.3 32.99 46.655Q31.115 46.01 29.315 45.44Q27.515 44.87 26.105 44.15Q24.695 43.43 23.84 42.41Q22.985 41.39 22.985 39.86Q22.985 38.66 23.405 37.655Q23.825 36.65 24.68 35.93Q25.535 35.21 26.78 34.805Q28.025 34.4 29.705 34.4Q31.565 34.4 32.93 34.865Q34.295 35.33 35.315 35.9Q36.335 36.47 37.085 36.935Q37.835 37.4 38.435 37.4Q39.035 37.4 39.47 37.13ZM51.425 28.31L44.915 28.31L62.435 71.69L69.725 71.69L87.245 28.31L80.735 28.31Q79.715 28.31 79.025 28.88Q78.335 29.45 78.065 30.14L67.895 56.6Q66.875 59.24 66.185 62.69Q65.765 60.98 65.3 59.435Q64.835 57.89 64.325 56.6L54.125 30.14Q53.795 29.33 53.135 28.82Q52.475 28.31 51.425 28.31Z" />
    </g>
  </g>
</svg>