<?xml version="1.0" encoding="utf-8"?>
<svg width="360px" height="90px" viewBox="0 0 360 90" version="1.1" xmlns:xlink="http://www.w3.org/1999/xlink" xmlns="http://www.w3.org/2000/svg">
  <defs>
    <rect width="360" height="90" id="artboard_1" />
    <clipPath id="clip_1">
      <use xlink:href="#artboard_1" clip-rule="evenodd" />
    </clipPath>
  </defs>
  <g id="Custom-Preset" clip-path="url(#clip_1)">
    <path d="M0 0L360 0L360 90L0 90L0 0Z" id="Rectangle-2" fill="#FFFFFF" fill-rule="evenodd" stroke="none" />
    <path d="M166.999 15L220.001 15Q220.197 15 220.394 15.0096Q220.59 15.0193 220.785 15.0385Q220.98 15.0578 221.175 15.0866Q221.369 15.1154 221.562 15.1537Q221.754 15.192 221.945 15.2397Q222.135 15.2874 222.323 15.3444Q222.511 15.4014 222.696 15.4676Q222.881 15.5337 223.062 15.6089Q223.243 15.684 223.421 15.768Q223.598 15.8519 223.772 15.9445Q223.945 16.0371 224.113 16.138Q224.282 16.239 224.445 16.3481Q224.608 16.4572 224.766 16.5741Q224.924 16.6911 225.075 16.8157Q225.227 16.9403 225.373 17.0721Q225.518 17.204 225.657 17.3429Q225.796 17.4817 225.928 17.6272Q226.06 17.7727 226.184 17.9245Q226.309 18.0763 226.426 18.234Q226.543 18.3917 226.652 18.555Q226.761 18.7183 226.862 18.8867Q226.963 19.0551 227.055 19.2283Q227.148 19.4015 227.232 19.579Q227.316 19.7565 227.391 19.9379Q227.466 20.1193 227.532 20.3042Q227.599 20.4891 227.656 20.677Q227.713 20.8649 227.76 21.0554Q227.808 21.2459 227.846 21.4385Q227.885 21.6311 227.913 21.8253Q227.942 22.0195 227.961 22.215Q227.981 22.4104 227.99 22.6065Q228 22.8026 228 22.999L228 67.001Q228 67.1974 227.99 67.3935Q227.981 67.5896 227.961 67.785Q227.942 67.9805 227.913 68.1747Q227.885 68.3689 227.846 68.5615Q227.808 68.7541 227.76 68.9446Q227.713 69.1351 227.656 69.323Q227.599 69.5109 227.532 69.6958Q227.466 69.8807 227.391 70.0621Q227.316 70.2435 227.232 70.421Q227.148 70.5985 227.055 70.7717Q226.963 70.9449 226.862 71.1133Q226.761 71.2817 226.652 71.445Q226.543 71.6083 226.426 71.766Q226.309 71.9237 226.184 72.0755Q226.06 72.2273 225.928 72.3728Q225.796 72.5183 225.657 72.6571Q225.518 72.796 225.373 72.9279Q225.227 73.0597 225.076 73.1843Q224.924 73.3089 224.766 73.4258Q224.608 73.5428 224.445 73.6519Q224.282 73.761 224.113 73.862Q223.945 73.9629 223.772 74.0555Q223.599 74.148 223.421 74.232Q223.243 74.316 223.062 74.3911Q222.881 74.4662 222.696 74.5324Q222.511 74.5986 222.323 74.6556Q222.135 74.7126 221.945 74.7603Q221.754 74.808 221.562 74.8463Q221.369 74.8846 221.175 74.9134Q220.98 74.9422 220.785 74.9615Q220.59 74.9807 220.394 74.9904Q220.197 75 220.001 75L166.999 75Q166.803 75 166.607 74.9904Q166.41 74.9807 166.215 74.9615Q166.02 74.9422 165.825 74.9134Q165.631 74.8846 165.438 74.8463Q165.246 74.808 165.055 74.7603Q164.865 74.7126 164.677 74.6556Q164.489 74.5986 164.304 74.5324Q164.119 74.4662 163.938 74.3911Q163.756 74.316 163.579 74.232Q163.401 74.148 163.228 74.0555Q163.055 73.9629 162.887 73.862Q162.718 73.761 162.555 73.6519Q162.392 73.5428 162.234 73.4258Q162.076 73.3089 161.924 73.1843Q161.773 73.0597 161.627 72.9279Q161.482 72.796 161.343 72.6571Q161.204 72.5183 161.072 72.3728Q160.94 72.2273 160.816 72.0755Q160.691 71.9237 160.574 71.766Q160.457 71.6083 160.348 71.445Q160.239 71.2817 160.138 71.1133Q160.037 70.9449 159.945 70.7717Q159.852 70.5985 159.768 70.421Q159.684 70.2435 159.609 70.0621Q159.534 69.8807 159.468 69.6958Q159.401 69.5109 159.344 69.323Q159.287 69.1351 159.24 68.9446Q159.192 68.7541 159.154 68.5615Q159.115 68.3689 159.087 68.1747Q159.058 67.9805 159.039 67.785Q159.019 67.5896 159.01 67.3935Q159 67.1974 159 67.001L159 22.999Q159 22.8026 159.01 22.6065Q159.019 22.4104 159.039 22.215Q159.058 22.0195 159.087 21.8253Q159.115 21.6311 159.154 21.4385Q159.192 21.2459 159.24 21.0554Q159.287 20.8649 159.344 20.677Q159.401 20.4891 159.468 20.3042Q159.534 20.1193 159.609 19.9379Q159.684 19.7565 159.768 19.579Q159.852 19.4015 159.945 19.2283Q160.037 19.0551 160.138 18.8867Q160.239 18.7183 160.348 18.555Q160.457 18.3917 160.574 18.234Q160.691 18.0763 160.816 17.9245Q160.94 17.7727 161.072 17.6272Q161.204 17.4817 161.343 17.3429Q161.482 17.204 161.627 17.0721Q161.773 16.9403 161.924 16.8157Q162.076 16.6911 162.234 16.5741Q162.392 16.4572 162.555 16.3481Q162.718 16.239 162.887 16.138Q163.055 16.0371 163.228 15.9445Q163.401 15.8519 163.579 15.768Q163.756 15.684 163.938 15.6089Q164.119 15.5337 164.304 15.4676Q164.489 15.4014 164.677 15.3444Q164.865 15.2874 165.055 15.2397Q165.246 15.192 165.438 15.1537Q165.631 15.1154 165.825 15.0866Q166.02 15.0578 166.215 15.0385Q166.41 15.0193 166.607 15.0096Q166.803 15 166.999 15Z" id="Rectangle" fill="#34B8FF" fill-rule="evenodd" stroke="none" />
    <g id="Quaver--SV--Guide">
      <g id="Quaver--">
        <path d="M50.74 48.98Q51.15 47.16 51.15 45.14Q51.15 41.92 50.13 39.23Q49.11 36.54 47.25 34.59Q45.39 32.64 42.78 31.56Q40.17 30.48 37.01 30.48Q33.85 30.48 31.25 31.56Q28.65 32.64 26.79 34.59Q24.93 36.54 23.91 39.23Q22.89 41.92 22.89 45.14Q22.89 48.36 23.91 51.05Q24.93 53.74 26.79 55.68Q28.65 57.62 31.25 58.69Q33.85 59.76 37.01 59.76Q38.35 59.76 39.58 59.56Q40.81 59.36 41.95 59L46.99 64.48Q47.45 64.98 48.01 65.18Q48.57 65.38 49.29 65.38L52.49 65.38L45.13 57.44Q46.53 56.5 47.65 55.22Q48.77 53.94 49.55 52.37Q50.33 50.8 50.74 48.98ZM46.45 40.4Q47.17 42.5 47.17 45.14Q47.17 47.78 46.45 49.87Q45.73 51.96 44.41 53.41Q43.09 54.86 41.21 55.63Q39.33 56.4 37.01 56.4Q34.71 56.4 32.83 55.63Q30.95 54.86 29.62 53.41Q28.29 51.96 27.57 49.87Q26.85 47.78 26.85 45.14Q26.85 42.5 27.57 40.4Q28.29 38.3 29.62 36.85Q30.95 35.4 32.83 34.62Q34.71 33.84 37.01 33.84Q39.33 33.84 41.21 34.62Q43.09 35.4 44.41 36.85Q45.73 38.3 46.45 40.4ZM93.01 59.46L91.43 59.46Q90.91 59.46 90.59 59.3Q90.27 59.14 90.17 58.62L89.77 56.74Q88.97 57.46 88.21 58.03Q87.45 58.6 86.61 58.99Q85.77 59.38 84.82 59.58Q83.87 59.78 82.71 59.78Q81.53 59.78 80.5 59.45Q79.47 59.12 78.71 58.46Q77.95 57.8 77.5 56.79Q77.05 55.78 77.05 54.4Q77.05 53.2 77.71 52.09Q78.37 50.98 79.84 50.12Q81.31 49.26 83.69 48.71Q86.07 48.16 89.51 48.08L89.51 46.5Q89.51 44.14 88.5 42.93Q87.49 41.72 85.51 41.72Q84.21 41.72 83.32 42.05Q82.43 42.38 81.78 42.79Q81.13 43.2 80.66 43.53Q80.19 43.86 79.73 43.86Q79.37 43.86 79.1 43.67Q78.83 43.48 78.67 43.2L78.03 42.06Q79.71 40.44 81.65 39.64Q83.59 38.84 85.95 38.84Q87.65 38.84 88.97 39.4Q90.29 39.96 91.19 40.96Q92.09 41.96 92.55 43.38Q93.01 44.8 93.01 46.5L93.01 59.46ZM139.85 39.2L139.85 59.46L143.41 59.46L143.41 46.56Q144.25 44.5 145.5 43.42Q146.75 42.34 148.61 42.34Q149.65 42.34 150.23 42.53Q150.81 42.72 151.09 42.72Q151.57 42.72 151.71 42.22L152.17 39.56Q151.59 39.22 150.91 39.03Q150.23 38.84 149.39 38.84Q147.33 38.84 145.8 40.03Q144.27 41.22 143.23 43.34L142.99 40.18Q142.91 39.64 142.69 39.42Q142.47 39.2 141.89 39.2L139.85 39.2ZM126.91 38.88Q128.73 38.88 130.27 39.49Q131.81 40.1 132.93 41.25Q134.05 42.4 134.68 44.09Q135.31 45.78 135.31 47.94Q135.31 48.78 135.13 49.06Q134.95 49.34 134.45 49.34L120.97 49.34Q121.01 51.26 121.49 52.68Q121.97 54.1 122.81 55.05Q123.65 56 124.81 56.47Q125.97 56.94 127.41 56.94Q128.75 56.94 129.72 56.63Q130.69 56.32 131.39 55.96Q132.09 55.6 132.56 55.29Q133.03 54.98 133.37 54.98Q133.81 54.98 134.05 55.32L135.05 56.62Q134.39 57.42 133.47 58.01Q132.55 58.6 131.5 58.98Q130.45 59.36 129.33 59.55Q128.21 59.74 127.11 59.74Q125.01 59.74 123.24 59.03Q121.47 58.32 120.18 56.95Q118.89 55.58 118.17 53.56Q117.45 51.54 117.45 48.92Q117.45 46.8 118.1 44.96Q118.75 43.12 119.97 41.77Q121.19 40.42 122.95 39.65Q124.71 38.88 126.91 38.88ZM58.97 52.12L58.97 39.2L55.41 39.2L55.41 52.12Q55.41 53.84 55.84 55.26Q56.27 56.68 57.13 57.68Q57.99 58.68 59.26 59.23Q60.53 59.78 62.19 59.78Q64.31 59.78 65.95 58.89Q67.59 58 68.91 56.54L69.19 58.72Q69.39 59.46 70.15 59.46L72.27 59.46L72.27 39.2L68.71 39.2L68.71 54.14Q67.55 55.46 66.17 56.2Q64.79 56.94 63.23 56.94Q61.09 56.94 60.03 55.68Q58.97 54.42 58.97 52.12ZM98.77 39.2L95.85 39.2L104.11 59.46L107.33 59.46L115.59 39.2L112.81 39.2Q112.41 39.2 112.14 39.41Q111.87 39.62 111.75 39.94L106.55 52.98Q106.27 53.7 106.09 54.42Q105.91 55.14 105.75 55.84Q105.61 55.14 105.45 54.42Q105.29 53.7 105.01 52.98L99.87 39.94Q99.75 39.64 99.47 39.42Q99.19 39.2 98.77 39.2ZM126.99 41.5Q124.41 41.5 122.93 42.99Q121.45 44.48 121.09 47.12L132.11 47.12Q132.11 45.88 131.77 44.85Q131.43 43.82 130.77 43.07Q130.11 42.32 129.16 41.91Q128.21 41.5 126.99 41.5ZM83.77 57.28Q84.71 57.28 85.49 57.09Q86.27 56.9 86.96 56.55Q87.65 56.2 88.28 55.7Q88.91 55.2 89.51 54.56L89.51 50.34Q87.05 50.42 85.33 50.73Q83.61 51.04 82.53 51.54Q81.45 52.04 80.96 52.72Q80.47 53.4 80.47 54.24Q80.47 55.04 80.73 55.62Q80.99 56.2 81.43 56.57Q81.87 56.94 82.47 57.11Q83.07 57.28 83.77 57.28Z" />
      </g>
      <g id="SV" fill="#FFFFFF">
        <path d="M186.4 36.42Q186.69 36.24 186.91 35.8L188.23 33.26Q186.71 31.82 184.55 31.02Q182.39 30.22 179.83 30.22Q177.57 30.22 175.81 30.92Q174.05 31.62 172.84 32.78Q171.63 33.94 171 35.44Q170.37 36.94 170.37 38.52Q170.37 40.5 170.94 41.85Q171.51 43.2 172.45 44.1Q173.39 45 174.59 45.56Q175.79 46.12 177.03 46.52Q178.27 46.92 179.47 47.26Q180.67 47.6 181.61 48.09Q182.55 48.58 183.12 49.3Q183.69 50.02 183.69 51.16Q183.69 53.2 182.43 54.29Q181.17 55.38 178.87 55.38Q177.37 55.38 176.3 54.97Q175.23 54.56 174.44 54.06Q173.65 53.56 173.07 53.15Q172.49 52.74 171.99 52.74Q171.61 52.74 171.3 52.93Q170.99 53.12 170.77 53.4L169.21 55.98Q170.05 56.84 171.12 57.54Q172.19 58.24 173.42 58.74Q174.65 59.24 175.99 59.51Q177.33 59.78 178.71 59.78Q181.11 59.78 182.97 59.05Q184.83 58.32 186.12 57.05Q187.41 55.78 188.08 54.07Q188.75 52.36 188.75 50.4Q188.75 48.6 188.18 47.34Q187.61 46.08 186.67 45.21Q185.73 44.34 184.53 43.77Q183.33 43.2 182.08 42.77Q180.83 42.34 179.63 41.96Q178.43 41.58 177.49 41.1Q176.55 40.62 175.98 39.94Q175.41 39.26 175.41 38.24Q175.41 37.44 175.69 36.77Q175.97 36.1 176.54 35.62Q177.11 35.14 177.94 34.87Q178.77 34.6 179.89 34.6Q181.13 34.6 182.04 34.91Q182.95 35.22 183.63 35.6Q184.31 35.98 184.81 36.29Q185.31 36.6 185.71 36.6Q186.11 36.6 186.4 36.42ZM194.37 30.54L190.03 30.54L201.71 59.46L206.57 59.46L218.25 30.54L213.91 30.54Q213.23 30.54 212.77 30.92Q212.31 31.3 212.13 31.76L205.35 49.4Q204.67 51.16 204.21 53.46Q203.93 52.32 203.62 51.29Q203.31 50.26 202.97 49.4L196.17 31.76Q195.95 31.22 195.51 30.88Q195.07 30.54 194.37 30.54Z" />
      </g>
      <g id="-Guide">
        <path d="M312.81 59.46Q312.05 59.46 311.85 58.72L311.53 56.26Q310.23 57.84 308.56 58.79Q306.89 59.74 304.73 59.74Q302.99 59.74 301.57 59.07Q300.15 58.4 299.15 57.1Q298.15 55.8 297.61 53.86Q297.07 51.92 297.07 49.4Q297.07 47.16 297.67 45.23Q298.27 43.3 299.4 41.88Q300.53 40.46 302.15 39.65Q303.77 38.84 305.83 38.84Q307.69 38.84 309.01 39.47Q310.33 40.1 311.37 41.24L311.37 30L314.93 30L314.93 59.46L312.81 59.46ZM292.86 33.81Q293.07 33.36 293.07 32.84Q293.07 32.32 292.86 31.85Q292.65 31.38 292.3 31.03Q291.95 30.68 291.49 30.48Q291.03 30.28 290.51 30.28Q289.99 30.28 289.54 30.48Q289.09 30.68 288.74 31.03Q288.39 31.38 288.19 31.85Q287.99 32.32 287.99 32.84Q287.99 33.36 288.19 33.81Q288.39 34.26 288.74 34.61Q289.09 34.96 289.54 35.16Q289.99 35.36 290.51 35.36Q291.03 35.36 291.49 35.16Q291.95 34.96 292.3 34.61Q292.65 34.26 292.86 33.81ZM250.05 56.64Q251.21 56.64 252.18 56.53Q253.15 56.42 254.01 56.2Q254.87 55.98 255.63 55.67Q256.39 55.36 257.15 54.96L257.15 48.64L252.71 48.64Q252.33 48.64 252.1 48.42Q251.87 48.2 251.87 47.88L251.87 45.68L260.67 45.68L260.67 56.68Q259.59 57.46 258.42 58.04Q257.25 58.62 255.92 59.01Q254.59 59.4 253.07 59.59Q251.55 59.78 249.77 59.78Q246.65 59.78 244.05 58.71Q241.45 57.64 239.57 55.71Q237.69 53.78 236.64 51.08Q235.59 48.38 235.59 45.14Q235.59 41.86 236.62 39.16Q237.65 36.46 239.56 34.53Q241.47 32.6 244.18 31.54Q246.89 30.48 250.25 30.48Q251.95 30.48 253.41 30.73Q254.87 30.98 256.12 31.45Q257.37 31.92 258.43 32.59Q259.49 33.26 260.41 34.1L259.31 35.86Q258.97 36.4 258.43 36.4Q258.11 36.4 257.73 36.18Q257.23 35.9 256.61 35.5Q255.99 35.1 255.1 34.73Q254.21 34.36 253 34.1Q251.79 33.84 250.13 33.84Q247.71 33.84 245.75 34.63Q243.79 35.42 242.41 36.89Q241.03 38.36 240.29 40.45Q239.55 42.54 239.55 45.14Q239.55 47.86 240.32 49.99Q241.09 52.12 242.49 53.6Q243.89 55.08 245.81 55.86Q247.73 56.64 250.05 56.64ZM332.29 39.49Q330.75 38.88 328.93 38.88Q326.73 38.88 324.97 39.65Q323.21 40.42 321.99 41.77Q320.77 43.12 320.12 44.96Q319.47 46.8 319.47 48.92Q319.47 51.54 320.19 53.56Q320.91 55.58 322.2 56.95Q323.49 58.32 325.26 59.03Q327.03 59.74 329.13 59.74Q330.23 59.74 331.35 59.55Q332.47 59.36 333.52 58.98Q334.57 58.6 335.49 58.01Q336.41 57.42 337.07 56.62L336.07 55.32Q335.83 54.98 335.39 54.98Q335.05 54.98 334.58 55.29Q334.11 55.6 333.41 55.96Q332.71 56.32 331.74 56.63Q330.77 56.94 329.43 56.94Q327.99 56.94 326.83 56.47Q325.67 56 324.83 55.05Q323.99 54.1 323.51 52.68Q323.03 51.26 322.99 49.34L336.47 49.34Q336.97 49.34 337.15 49.06Q337.33 48.78 337.33 47.94Q337.33 45.78 336.7 44.09Q336.07 42.4 334.95 41.25Q333.83 40.1 332.29 39.49ZM269.15 39.2L269.15 52.12Q269.15 54.42 270.21 55.68Q271.27 56.94 273.41 56.94Q274.97 56.94 276.35 56.2Q277.73 55.46 278.89 54.14L278.89 39.2L282.45 39.2L282.45 59.46L280.33 59.46Q279.57 59.46 279.37 58.72L279.09 56.54Q277.77 58 276.13 58.89Q274.49 59.78 272.37 59.78Q270.71 59.78 269.44 59.23Q268.17 58.68 267.31 57.68Q266.45 56.68 266.02 55.26Q265.59 53.84 265.59 52.12L265.59 39.2L269.15 39.2ZM292.27 59.46L292.27 39.2L288.71 39.2L288.71 59.46L292.27 59.46ZM324.95 42.99Q326.43 41.5 329.01 41.5Q330.23 41.5 331.18 41.91Q332.13 42.32 332.79 43.07Q333.45 43.82 333.79 44.85Q334.13 45.88 334.13 47.12L323.11 47.12Q323.47 44.48 324.95 42.99ZM305.91 56.86Q307.65 56.86 308.96 56.06Q310.27 55.26 311.37 53.8L311.37 44Q310.39 42.68 309.22 42.15Q308.05 41.62 306.63 41.62Q303.79 41.62 302.27 43.64Q300.75 45.66 300.75 49.4Q300.75 51.38 301.09 52.79Q301.43 54.2 302.09 55.11Q302.75 56.02 303.71 56.44Q304.67 56.86 305.91 56.86Z" />
      </g>
    </g>
  </g>
</svg>